M48
; DRILL file {KiCad 9.0.2+dfsg-1} date 2025-10-31T17:19:21+0100
; FORMAT={-:-/ absolute / metric / decimal}
; #@! TF.CreationDate,2025-10-31T17:19:21+01:00
; #@! TF.GenerationSoftware,Kicad,Pcbnew,9.0.2+dfsg-1
; #@! TF.FileFunction,MixedPlating,1,2
FMAT,2
METRIC
; #@! TA.AperFunction,Plated,PTH,ViaDrill
T1C0.300
; #@! TA.AperFunction,Plated,PTH,ComponentDrill
T2C0.900
; #@! TA.AperFunction,Plated,PTH,ComponentDrill
T3C1.000
; #@! TA.AperFunction,Plated,PTH,ComponentDrill
T4C1.100
%
G90
G05
T1
X147.61Y-71.21
X148.2Y-73.8
X149.0Y-80.4
X149.2Y-72.6
X149.6Y-55.0
X149.6Y-64.0
X149.7Y-52.7
X149.8Y-68.4
X150.6Y-55.0
X150.6Y-66.0
X152.2Y-55.0
X152.54Y-58.71
X153.2Y-85.0
X153.35Y-55.52
X153.6Y-54.2
X154.2Y-61.0
X155.6Y-57.2
X155.6Y-73.2
T2
X151.6Y-86.6
X151.66Y-80.8
X154.14Y-86.6
X154.2Y-80.8
T3
X147.0Y-82.26
X147.0Y-84.8
X152.4Y-61.05
X152.4Y-63.59
X152.4Y-66.13
X152.4Y-68.67
X152.4Y-71.21
X152.4Y-73.75
X157.5Y-50.72
X157.5Y-53.26
X157.5Y-55.8
X157.5Y-58.34
X157.5Y-60.88
X157.5Y-63.42
X157.5Y-65.96
X157.5Y-68.5
X157.5Y-71.04
X157.5Y-73.58
X157.5Y-76.12
X157.5Y-78.66
X157.5Y-81.2
X157.5Y-83.74
X157.5Y-86.28
T4
X147.2Y-78.6
M30
