%TF.GenerationSoftware,KiCad,Pcbnew,9.0.2+dfsg-1*%
%TF.CreationDate,2025-10-31T17:19:17+01:00*%
%TF.ProjectId,attiny,61747469-6e79-42e6-9b69-6361645f7063,rev?*%
%TF.SameCoordinates,Original*%
%TF.FileFunction,AssemblyDrawing,Bot*%
%FSLAX46Y46*%
G04 Gerber Fmt 4.6, Leading zero omitted, Abs format (unit mm)*
G04 Created by KiCad (PCBNEW 9.0.2+dfsg-1) date 2025-10-31 17:19:17*
%MOMM*%
%LPD*%
G01*
G04 APERTURE LIST*
%ADD10C,0.150000*%
%ADD11C,0.100000*%
G04 APERTURE END LIST*
D10*
X156954819Y-68166666D02*
X157669104Y-68166666D01*
X157669104Y-68166666D02*
X157811961Y-68119047D01*
X157811961Y-68119047D02*
X157907200Y-68023809D01*
X157907200Y-68023809D02*
X157954819Y-67880952D01*
X157954819Y-67880952D02*
X157954819Y-67785714D01*
X157050057Y-68595238D02*
X157002438Y-68642857D01*
X157002438Y-68642857D02*
X156954819Y-68738095D01*
X156954819Y-68738095D02*
X156954819Y-68976190D01*
X156954819Y-68976190D02*
X157002438Y-69071428D01*
X157002438Y-69071428D02*
X157050057Y-69119047D01*
X157050057Y-69119047D02*
X157145295Y-69166666D01*
X157145295Y-69166666D02*
X157240533Y-69166666D01*
X157240533Y-69166666D02*
X157383390Y-69119047D01*
X157383390Y-69119047D02*
X157954819Y-68547619D01*
X157954819Y-68547619D02*
X157954819Y-69166666D01*
D11*
%TO.C,J2*%
X156230000Y-49450000D02*
X156230000Y-86915000D01*
X156230000Y-86915000D02*
X156865000Y-87550000D01*
X156865000Y-87550000D02*
X158770000Y-87550000D01*
X158770000Y-49450000D02*
X156230000Y-49450000D01*
X158770000Y-87550000D02*
X158770000Y-49450000D01*
%TD*%
M02*
