%TF.GenerationSoftware,KiCad,Pcbnew,9.0.2+dfsg-1*%
%TF.CreationDate,2025-10-31T17:19:14+01:00*%
%TF.ProjectId,attiny,61747469-6e79-42e6-9b69-6361645f7063,rev?*%
%TF.SameCoordinates,Original*%
%TF.FileFunction,Copper,L1,Top*%
%TF.FilePolarity,Positive*%
%FSLAX46Y46*%
G04 Gerber Fmt 4.6, Leading zero omitted, Abs format (unit mm)*
G04 Created by KiCad (PCBNEW 9.0.2+dfsg-1) date 2025-10-31 17:19:14*
%MOMM*%
%LPD*%
G01*
G04 APERTURE LIST*
G04 Aperture macros list*
%AMRoundRect*
0 Rectangle with rounded corners*
0 $1 Rounding radius*
0 $2 $3 $4 $5 $6 $7 $8 $9 X,Y pos of 4 corners*
0 Add a 4 corners polygon primitive as box body*
4,1,4,$2,$3,$4,$5,$6,$7,$8,$9,$2,$3,0*
0 Add four circle primitives for the rounded corners*
1,1,$1+$1,$2,$3*
1,1,$1+$1,$4,$5*
1,1,$1+$1,$6,$7*
1,1,$1+$1,$8,$9*
0 Add four rect primitives between the rounded corners*
20,1,$1+$1,$2,$3,$4,$5,0*
20,1,$1+$1,$4,$5,$6,$7,0*
20,1,$1+$1,$6,$7,$8,$9,0*
20,1,$1+$1,$8,$9,$2,$3,0*%
G04 Aperture macros list end*
%TA.AperFunction,ComponentPad*%
%ADD10R,1.800000X1.800000*%
%TD*%
%TA.AperFunction,ComponentPad*%
%ADD11C,1.800000*%
%TD*%
%TA.AperFunction,SMDPad,CuDef*%
%ADD12RoundRect,0.250001X-0.462499X-0.624999X0.462499X-0.624999X0.462499X0.624999X-0.462499X0.624999X0*%
%TD*%
%TA.AperFunction,ComponentPad*%
%ADD13R,1.700000X1.700000*%
%TD*%
%TA.AperFunction,ComponentPad*%
%ADD14C,1.700000*%
%TD*%
%TA.AperFunction,ComponentPad*%
%ADD15C,2.200000*%
%TD*%
%TA.AperFunction,SMDPad,CuDef*%
%ADD16RoundRect,0.162500X-0.162500X0.650000X-0.162500X-0.650000X0.162500X-0.650000X0.162500X0.650000X0*%
%TD*%
%TA.AperFunction,ViaPad*%
%ADD17C,0.600000*%
%TD*%
%TA.AperFunction,Conductor*%
%ADD18C,0.200000*%
%TD*%
G04 APERTURE END LIST*
D10*
%TO.P,D1,1,K*%
%TO.N,Net-(D1-K)*%
X151660000Y-80800000D03*
D11*
%TO.P,D1,2,A*%
%TO.N,Net-(D1-A)*%
X154200000Y-80800000D03*
%TD*%
D10*
%TO.P,D2,1,K*%
%TO.N,Net-(D2-K)*%
X151600000Y-86600000D03*
D11*
%TO.P,D2,2,A*%
%TO.N,Net-(D2-A)*%
X154140000Y-86600000D03*
%TD*%
D12*
%TO.P,R2,1*%
%TO.N,Net-(D2-K)*%
X151425000Y-83600000D03*
%TO.P,R2,2*%
%TO.N,GND*%
X154400000Y-83600000D03*
%TD*%
D13*
%TO.P,J3,1,Pin_1*%
%TO.N,Net-(D1-A)*%
X147000000Y-82260000D03*
D14*
%TO.P,J3,2,Pin_2*%
%TO.N,Net-(J2-Pin_8)*%
X147000000Y-84800000D03*
%TD*%
D12*
%TO.P,R1,1*%
%TO.N,Net-(D1-K)*%
X151425000Y-77600000D03*
%TO.P,R1,2*%
%TO.N,GND*%
X154400000Y-77600000D03*
%TD*%
D13*
%TO.P,J1,1,Pin_1*%
%TO.N,Net-(J1-Pin_1)*%
X152400000Y-61050000D03*
D14*
%TO.P,J1,2,Pin_2*%
%TO.N,Net-(J1-Pin_2)*%
X152400000Y-63590000D03*
%TO.P,J1,3,Pin_3*%
%TO.N,Net-(D2-A)*%
X152400000Y-66130000D03*
%TO.P,J1,4,Pin_4*%
%TO.N,Net-(D1-A)*%
X152400000Y-68670000D03*
%TO.P,J1,5,Pin_5*%
%TO.N,VCC*%
X152400000Y-71210000D03*
%TO.P,J1,6,Pin_6*%
%TO.N,GND*%
X152400000Y-73750000D03*
%TD*%
D15*
%TO.P,J4,1,Pin_1*%
%TO.N,VCC*%
X147200000Y-78600000D03*
%TD*%
D16*
%TO.P,U1,1,~{RESET}/PB5*%
%TO.N,Net-(J1-Pin_1)*%
X153540000Y-50000000D03*
%TO.P,U1,2,XTAL1/PB3*%
%TO.N,unconnected-(U1-XTAL1{slash}PB3-Pad2)*%
X152270000Y-50000000D03*
%TO.P,U1,3,XTAL2/PB4*%
%TO.N,unconnected-(U1-XTAL2{slash}PB4-Pad3)*%
X151000000Y-50000000D03*
%TO.P,U1,4,GND*%
%TO.N,GND*%
X149730000Y-50000000D03*
%TO.P,U1,5,AREF/PB0*%
%TO.N,Net-(J1-Pin_2)*%
X149730000Y-57175000D03*
%TO.P,U1,6,PB1*%
%TO.N,Net-(D2-A)*%
X151000000Y-57175000D03*
%TO.P,U1,7,PB2*%
%TO.N,Net-(D1-A)*%
X152270000Y-57175000D03*
%TO.P,U1,8,VCC*%
%TO.N,VCC*%
X153540000Y-57175000D03*
%TD*%
D13*
%TO.P,J2,1,Pin_1*%
%TO.N,unconnected-(J2-Pin_1-Pad1)*%
X157500000Y-86280000D03*
D14*
%TO.P,J2,2,Pin_2*%
%TO.N,GND*%
X157500000Y-83740000D03*
%TO.P,J2,3,Pin_3*%
%TO.N,unconnected-(J2-Pin_3-Pad3)*%
X157500000Y-81200000D03*
%TO.P,J2,4,Pin_4*%
%TO.N,unconnected-(J2-Pin_4-Pad4)*%
X157500000Y-78660000D03*
%TO.P,J2,5,Pin_5*%
%TO.N,unconnected-(J2-Pin_5-Pad5)*%
X157500000Y-76120000D03*
%TO.P,J2,6,Pin_6*%
%TO.N,unconnected-(J2-Pin_6-Pad6)*%
X157500000Y-73580000D03*
%TO.P,J2,7,Pin_7*%
%TO.N,unconnected-(J2-Pin_7-Pad7)*%
X157500000Y-71040000D03*
%TO.P,J2,8,Pin_8*%
%TO.N,Net-(J2-Pin_8)*%
X157500000Y-68500000D03*
%TO.P,J2,9,Pin_9*%
%TO.N,unconnected-(J2-Pin_9-Pad9)*%
X157500000Y-65960000D03*
%TO.P,J2,10,Pin_10*%
%TO.N,unconnected-(J2-Pin_10-Pad10)*%
X157500000Y-63420000D03*
%TO.P,J2,11,Pin_11*%
%TO.N,unconnected-(J2-Pin_11-Pad11)*%
X157500000Y-60880000D03*
%TO.P,J2,12,Pin_12*%
%TO.N,unconnected-(J2-Pin_12-Pad12)*%
X157500000Y-58340000D03*
%TO.P,J2,13,Pin_13*%
%TO.N,unconnected-(J2-Pin_13-Pad13)*%
X157500000Y-55800000D03*
%TO.P,J2,14,Pin_14*%
%TO.N,unconnected-(J2-Pin_14-Pad14)*%
X157500000Y-53260000D03*
%TO.P,J2,15,Pin_15*%
%TO.N,Net-(D2-A)*%
X157500000Y-50720000D03*
%TD*%
D17*
%TO.N,GND*%
X153350000Y-55520000D03*
X152540000Y-58710000D03*
%TO.N,VCC*%
X147610000Y-71210000D03*
%TO.N,Net-(J1-Pin_1)*%
X154200000Y-61000000D03*
X153600000Y-54200000D03*
%TO.N,GND*%
X149700000Y-52700000D03*
X148200000Y-73800000D03*
X155600000Y-57200000D03*
%TO.N,Net-(J1-Pin_2)*%
X149600000Y-55000000D03*
X149600000Y-64000000D03*
%TO.N,Net-(D1-A)*%
X149800000Y-68400000D03*
X152200000Y-55000000D03*
%TO.N,Net-(J2-Pin_8)*%
X149200000Y-72600000D03*
X155600000Y-73200000D03*
X149000000Y-80400000D03*
%TO.N,Net-(D2-A)*%
X153200000Y-85000000D03*
X150600000Y-66000000D03*
X150600000Y-55000000D03*
%TD*%
D18*
%TO.N,GND*%
X152914000Y-55933943D02*
X152936057Y-55933943D01*
X152936057Y-55933943D02*
X153350000Y-55520000D01*
X152914000Y-58336000D02*
X152914000Y-55933943D01*
X152540000Y-58710000D02*
X152914000Y-58336000D01*
%TO.N,VCC*%
X154801000Y-58436000D02*
X154801000Y-68809000D01*
X153540000Y-57175000D02*
X154801000Y-58436000D01*
X154801000Y-68809000D02*
X152400000Y-71210000D01*
X147200000Y-71800000D02*
X147200000Y-78200000D01*
X147610000Y-71210000D02*
X147400000Y-71000000D01*
X147610000Y-71210000D02*
X147610000Y-71390000D01*
X147610000Y-71390000D02*
X147200000Y-71800000D01*
X152400000Y-71210000D02*
X147610000Y-71210000D01*
%TO.N,Net-(J1-Pin_1)*%
X152400000Y-61050000D02*
X154150000Y-61050000D01*
X154150000Y-61050000D02*
X154200000Y-61000000D01*
X153540000Y-54140000D02*
X153540000Y-50000000D01*
X153600000Y-54200000D02*
X153540000Y-54140000D01*
%TO.N,Net-(D2-K)*%
X151425000Y-86425000D02*
X151600000Y-86600000D01*
X151425000Y-83600000D02*
X151425000Y-86425000D01*
%TO.N,GND*%
X154540000Y-83740000D02*
X154400000Y-83600000D01*
X155341000Y-82659000D02*
X155341000Y-78541000D01*
X154400000Y-75750000D02*
X152400000Y-73750000D01*
X152350000Y-73800000D02*
X148200000Y-73800000D01*
X157260000Y-83500000D02*
X157500000Y-83740000D01*
X154400000Y-77600000D02*
X154400000Y-75750000D01*
X152400000Y-73750000D02*
X152350000Y-73800000D01*
X157500000Y-83740000D02*
X154540000Y-83740000D01*
X149700000Y-52700000D02*
X149730000Y-52670000D01*
X154400000Y-83600000D02*
X155341000Y-82659000D01*
X149730000Y-52670000D02*
X149730000Y-50000000D01*
X155341000Y-78541000D02*
X154400000Y-77600000D01*
%TO.N,Net-(J1-Pin_2)*%
X149600000Y-55000000D02*
X149600000Y-55400000D01*
X152400000Y-63590000D02*
X150010000Y-63590000D01*
X149730000Y-55530000D02*
X149730000Y-57175000D01*
X150010000Y-63590000D02*
X149600000Y-64000000D01*
X149600000Y-55400000D02*
X149730000Y-55530000D01*
%TO.N,Net-(D1-K)*%
X151660000Y-80800000D02*
X151660000Y-77835000D01*
X151660000Y-77835000D02*
X151425000Y-77600000D01*
%TO.N,Net-(D1-A)*%
X152200000Y-55000000D02*
X152200000Y-54000000D01*
X148600000Y-53600000D02*
X148600000Y-67200000D01*
X152200000Y-55000000D02*
X152270000Y-55070000D01*
X151800000Y-53600000D02*
X148600000Y-53600000D01*
X148600000Y-67200000D02*
X149800000Y-68400000D01*
X152270000Y-55070000D02*
X152270000Y-57175000D01*
X152270000Y-50000000D02*
X152270000Y-53130000D01*
X152270000Y-53130000D02*
X151800000Y-53600000D01*
X152200000Y-54000000D02*
X151800000Y-53600000D01*
%TO.N,Net-(J2-Pin_8)*%
X155600000Y-73200000D02*
X154999000Y-72599000D01*
X154999000Y-72599000D02*
X149201000Y-72599000D01*
X149000000Y-80400000D02*
X149000000Y-82800000D01*
X149201000Y-72599000D02*
X149200000Y-72600000D01*
X149000000Y-82800000D02*
X147000000Y-84800000D01*
%TO.N,Net-(D2-A)*%
X154140000Y-86600000D02*
X154140000Y-85940000D01*
X151000000Y-55800000D02*
X151000000Y-57175000D01*
X152400000Y-66000000D02*
X152600000Y-65800000D01*
X150600000Y-55400000D02*
X151000000Y-55800000D01*
X150600000Y-55000000D02*
X150600000Y-55400000D01*
X150730000Y-66130000D02*
X150600000Y-66000000D01*
X154140000Y-86600000D02*
X154140000Y-86315000D01*
X154140000Y-85940000D02*
X153200000Y-85000000D01*
X152400000Y-66130000D02*
X150730000Y-66130000D01*
%TD*%
%TA.AperFunction,Conductor*%
%TO.N,GND*%
G36*
X148913213Y-48920185D02*
G01*
X148958968Y-48972989D01*
X148968912Y-49042147D01*
X148961126Y-49068932D01*
X148961161Y-49068943D01*
X148960609Y-49070712D01*
X148959251Y-49075387D01*
X148958932Y-49076094D01*
X148911065Y-49229707D01*
X148905000Y-49296456D01*
X148905000Y-49750000D01*
X149606000Y-49750000D01*
X149673039Y-49769685D01*
X149718794Y-49822489D01*
X149730000Y-49874000D01*
X149730000Y-50000000D01*
X149856000Y-50000000D01*
X149923039Y-50019685D01*
X149968794Y-50072489D01*
X149980000Y-50124000D01*
X149980000Y-51309414D01*
X150012792Y-51306435D01*
X150012802Y-51306432D01*
X150166393Y-51258572D01*
X150166394Y-51258571D01*
X150300365Y-51177582D01*
X150367920Y-51159745D01*
X150428664Y-51177581D01*
X150563398Y-51259031D01*
X150717113Y-51306930D01*
X150783909Y-51313000D01*
X151216090Y-51312999D01*
X151216098Y-51312999D01*
X151282882Y-51306931D01*
X151282885Y-51306930D01*
X151282887Y-51306930D01*
X151436602Y-51259031D01*
X151481350Y-51231979D01*
X151548904Y-51214143D01*
X151615378Y-51235660D01*
X151659666Y-51289700D01*
X151669500Y-51338096D01*
X151669500Y-52829903D01*
X151660855Y-52859343D01*
X151654332Y-52889330D01*
X151650577Y-52894345D01*
X151649815Y-52896942D01*
X151633181Y-52917584D01*
X151587584Y-52963181D01*
X151526261Y-52996666D01*
X151499903Y-52999500D01*
X148520943Y-52999500D01*
X148368216Y-53040423D01*
X148368209Y-53040426D01*
X148231290Y-53119475D01*
X148231282Y-53119481D01*
X148119481Y-53231282D01*
X148119475Y-53231290D01*
X148040426Y-53368209D01*
X148040423Y-53368216D01*
X147999500Y-53520943D01*
X147999500Y-67113330D01*
X147999499Y-67113348D01*
X147999499Y-67279054D01*
X147999498Y-67279054D01*
X148040423Y-67431786D01*
X148044728Y-67439242D01*
X148049346Y-67447239D01*
X148049348Y-67447248D01*
X148049351Y-67447247D01*
X148119479Y-67568714D01*
X148119481Y-67568717D01*
X148238349Y-67687585D01*
X148238355Y-67687590D01*
X148965425Y-68414660D01*
X148998910Y-68475983D01*
X148999361Y-68478149D01*
X149030261Y-68633491D01*
X149030264Y-68633501D01*
X149090602Y-68779172D01*
X149090609Y-68779185D01*
X149178210Y-68910288D01*
X149178213Y-68910292D01*
X149289707Y-69021786D01*
X149289711Y-69021789D01*
X149420814Y-69109390D01*
X149420827Y-69109397D01*
X149566498Y-69169735D01*
X149566503Y-69169737D01*
X149721153Y-69200499D01*
X149721156Y-69200500D01*
X149721158Y-69200500D01*
X149878844Y-69200500D01*
X149878845Y-69200499D01*
X150033497Y-69169737D01*
X150179179Y-69109394D01*
X150310289Y-69021789D01*
X150421789Y-68910289D01*
X150509394Y-68779179D01*
X150569737Y-68633497D01*
X150600500Y-68478842D01*
X150600500Y-68321158D01*
X150600500Y-68321155D01*
X150600499Y-68321153D01*
X150569737Y-68166503D01*
X150563558Y-68151585D01*
X150509397Y-68020827D01*
X150509390Y-68020814D01*
X150421789Y-67889711D01*
X150421786Y-67889707D01*
X150310292Y-67778213D01*
X150310288Y-67778210D01*
X150179185Y-67690609D01*
X150179172Y-67690602D01*
X150033501Y-67630264D01*
X150033491Y-67630261D01*
X149878149Y-67599361D01*
X149816238Y-67566976D01*
X149814660Y-67565425D01*
X149236819Y-66987584D01*
X149203334Y-66926261D01*
X149200500Y-66899903D01*
X149200500Y-64886555D01*
X149220185Y-64819516D01*
X149272989Y-64773761D01*
X149342147Y-64763817D01*
X149360411Y-64768840D01*
X149360676Y-64767969D01*
X149366492Y-64769732D01*
X149366503Y-64769737D01*
X149506031Y-64797491D01*
X149521153Y-64800499D01*
X149521156Y-64800500D01*
X149521158Y-64800500D01*
X149678844Y-64800500D01*
X149678845Y-64800499D01*
X149833497Y-64769737D01*
X149979179Y-64709394D01*
X150110289Y-64621789D01*
X150221789Y-64510289D01*
X150309394Y-64379179D01*
X150342277Y-64299792D01*
X150355840Y-64267048D01*
X150399680Y-64212644D01*
X150465974Y-64190579D01*
X150470401Y-64190500D01*
X151114281Y-64190500D01*
X151181320Y-64210185D01*
X151224765Y-64258205D01*
X151244947Y-64297814D01*
X151244948Y-64297815D01*
X151369890Y-64469786D01*
X151520213Y-64620109D01*
X151692182Y-64745050D01*
X151700946Y-64749516D01*
X151751742Y-64797491D01*
X151768536Y-64865312D01*
X151745998Y-64931447D01*
X151700946Y-64970484D01*
X151692182Y-64974949D01*
X151520213Y-65099890D01*
X151369894Y-65250209D01*
X151369890Y-65250214D01*
X151291973Y-65357459D01*
X151236643Y-65400125D01*
X151167030Y-65406104D01*
X151115376Y-65381561D01*
X151115354Y-65381595D01*
X151115127Y-65381443D01*
X151112992Y-65380429D01*
X151110288Y-65378210D01*
X150979185Y-65290609D01*
X150979172Y-65290602D01*
X150833501Y-65230264D01*
X150833489Y-65230261D01*
X150678845Y-65199500D01*
X150678842Y-65199500D01*
X150521158Y-65199500D01*
X150521155Y-65199500D01*
X150366510Y-65230261D01*
X150366498Y-65230264D01*
X150220827Y-65290602D01*
X150220814Y-65290609D01*
X150089711Y-65378210D01*
X150089707Y-65378213D01*
X149978213Y-65489707D01*
X149978210Y-65489711D01*
X149890609Y-65620814D01*
X149890602Y-65620827D01*
X149830264Y-65766498D01*
X149830261Y-65766510D01*
X149799500Y-65921153D01*
X149799500Y-66078846D01*
X149830261Y-66233489D01*
X149830264Y-66233501D01*
X149890602Y-66379172D01*
X149890609Y-66379185D01*
X149978210Y-66510288D01*
X149978213Y-66510292D01*
X150089707Y-66621786D01*
X150089711Y-66621789D01*
X150220814Y-66709390D01*
X150220827Y-66709397D01*
X150366498Y-66769735D01*
X150366503Y-66769737D01*
X150521153Y-66800499D01*
X150521156Y-66800500D01*
X150521158Y-66800500D01*
X150678844Y-66800500D01*
X150678845Y-66800499D01*
X150833497Y-66769737D01*
X150880700Y-66750185D01*
X150905437Y-66739939D01*
X150913613Y-66738312D01*
X150917954Y-66735523D01*
X150952889Y-66730500D01*
X151114281Y-66730500D01*
X151181320Y-66750185D01*
X151224765Y-66798205D01*
X151244947Y-66837814D01*
X151244948Y-66837815D01*
X151369890Y-67009786D01*
X151520213Y-67160109D01*
X151692182Y-67285050D01*
X151700946Y-67289516D01*
X151751742Y-67337491D01*
X151768536Y-67405312D01*
X151745998Y-67471447D01*
X151700946Y-67510484D01*
X151692182Y-67514949D01*
X151520213Y-67639890D01*
X151369890Y-67790213D01*
X151244951Y-67962179D01*
X151148444Y-68151585D01*
X151082753Y-68353760D01*
X151058181Y-68508901D01*
X151049500Y-68563713D01*
X151049500Y-68776287D01*
X151082754Y-68986243D01*
X151144965Y-69177709D01*
X151148444Y-69188414D01*
X151244951Y-69377820D01*
X151369890Y-69549786D01*
X151520213Y-69700109D01*
X151692182Y-69825050D01*
X151700946Y-69829516D01*
X151751742Y-69877491D01*
X151768536Y-69945312D01*
X151745998Y-70011447D01*
X151700946Y-70050484D01*
X151692182Y-70054949D01*
X151520213Y-70179890D01*
X151369890Y-70330213D01*
X151244948Y-70502184D01*
X151244947Y-70502185D01*
X151224765Y-70541795D01*
X151176791Y-70592591D01*
X151114281Y-70609500D01*
X148189766Y-70609500D01*
X148122727Y-70589815D01*
X148120875Y-70588602D01*
X147989185Y-70500609D01*
X147989172Y-70500602D01*
X147843501Y-70440264D01*
X147843489Y-70440261D01*
X147688845Y-70409500D01*
X147688842Y-70409500D01*
X147532706Y-70409500D01*
X147500613Y-70405275D01*
X147479057Y-70399499D01*
X147320943Y-70399499D01*
X147206397Y-70430192D01*
X147168214Y-70440423D01*
X147031284Y-70519481D01*
X147031281Y-70519483D01*
X146919483Y-70631281D01*
X146919481Y-70631284D01*
X146840423Y-70768214D01*
X146840423Y-70768215D01*
X146799499Y-70920943D01*
X146799499Y-71079057D01*
X146805275Y-71100611D01*
X146809500Y-71132705D01*
X146809500Y-71289900D01*
X146789815Y-71356939D01*
X146773182Y-71377581D01*
X146719479Y-71431284D01*
X146678748Y-71501834D01*
X146678748Y-71501835D01*
X146640423Y-71568214D01*
X146640423Y-71568215D01*
X146599499Y-71720943D01*
X146599499Y-71720945D01*
X146599499Y-71889046D01*
X146599500Y-71889059D01*
X146599500Y-77033699D01*
X146579815Y-77100738D01*
X146531795Y-77144184D01*
X146361151Y-77231132D01*
X146157350Y-77379201D01*
X146157345Y-77379205D01*
X145979205Y-77557345D01*
X145979201Y-77557350D01*
X145831132Y-77761151D01*
X145716760Y-77985616D01*
X145638910Y-78225214D01*
X145599500Y-78474038D01*
X145599500Y-78725961D01*
X145638910Y-78974785D01*
X145716760Y-79214383D01*
X145774148Y-79327011D01*
X145814348Y-79405909D01*
X145831132Y-79438848D01*
X145979201Y-79642649D01*
X145979205Y-79642654D01*
X146157345Y-79820794D01*
X146157350Y-79820798D01*
X146325931Y-79943278D01*
X146361155Y-79968870D01*
X146504184Y-80041747D01*
X146585616Y-80083239D01*
X146585618Y-80083239D01*
X146585621Y-80083241D01*
X146825215Y-80161090D01*
X147074038Y-80200500D01*
X147074039Y-80200500D01*
X147325961Y-80200500D01*
X147325962Y-80200500D01*
X147574785Y-80161090D01*
X147814379Y-80083241D01*
X148038845Y-79968870D01*
X148074070Y-79943276D01*
X148139873Y-79919797D01*
X148207928Y-79935621D01*
X148256623Y-79985726D01*
X148270500Y-80054204D01*
X148261517Y-80091046D01*
X148230263Y-80166502D01*
X148230261Y-80166510D01*
X148199500Y-80321153D01*
X148199500Y-80478846D01*
X148230261Y-80633489D01*
X148230264Y-80633501D01*
X148290602Y-80779172D01*
X148290609Y-80779185D01*
X148336707Y-80848175D01*
X148357585Y-80914853D01*
X148339100Y-80982233D01*
X148287122Y-81028923D01*
X148218152Y-81040099D01*
X148159294Y-81016332D01*
X148092335Y-80966206D01*
X148092328Y-80966202D01*
X147957482Y-80915908D01*
X147957483Y-80915908D01*
X147897883Y-80909501D01*
X147897881Y-80909500D01*
X147897873Y-80909500D01*
X147897864Y-80909500D01*
X146102129Y-80909500D01*
X146102123Y-80909501D01*
X146042516Y-80915908D01*
X145907671Y-80966202D01*
X145907664Y-80966206D01*
X145792455Y-81052452D01*
X145792452Y-81052455D01*
X145706206Y-81167664D01*
X145706202Y-81167671D01*
X145655908Y-81302517D01*
X145649501Y-81362116D01*
X145649500Y-81362135D01*
X145649500Y-83157870D01*
X145649501Y-83157876D01*
X145655908Y-83217483D01*
X145706202Y-83352328D01*
X145706206Y-83352335D01*
X145792452Y-83467544D01*
X145792455Y-83467547D01*
X145907664Y-83553793D01*
X145907671Y-83553797D01*
X146039082Y-83602810D01*
X146095016Y-83644681D01*
X146119433Y-83710145D01*
X146104582Y-83778418D01*
X146083431Y-83806673D01*
X145969889Y-83920215D01*
X145844951Y-84092179D01*
X145748444Y-84281585D01*
X145682753Y-84483760D01*
X145673193Y-84544123D01*
X145649500Y-84693713D01*
X145649500Y-84906287D01*
X145650059Y-84909814D01*
X145675818Y-85072455D01*
X145682754Y-85116243D01*
X145743144Y-85302104D01*
X145748444Y-85318414D01*
X145844951Y-85507820D01*
X145969890Y-85679786D01*
X146120213Y-85830109D01*
X146292179Y-85955048D01*
X146292181Y-85955049D01*
X146292184Y-85955051D01*
X146481588Y-86051557D01*
X146683757Y-86117246D01*
X146893713Y-86150500D01*
X146893714Y-86150500D01*
X147106286Y-86150500D01*
X147106287Y-86150500D01*
X147316243Y-86117246D01*
X147518412Y-86051557D01*
X147707816Y-85955051D01*
X147729789Y-85939086D01*
X147879786Y-85830109D01*
X147879788Y-85830106D01*
X147879792Y-85830104D01*
X148030104Y-85679792D01*
X148030106Y-85679788D01*
X148030109Y-85679786D01*
X148155048Y-85507820D01*
X148155047Y-85507820D01*
X148155051Y-85507816D01*
X148251557Y-85318412D01*
X148317246Y-85116243D01*
X148350500Y-84906287D01*
X148350500Y-84693713D01*
X148317246Y-84483757D01*
X148303506Y-84441473D01*
X148301512Y-84371635D01*
X148333755Y-84315478D01*
X149368713Y-83280521D01*
X149368716Y-83280520D01*
X149480520Y-83168716D01*
X149530639Y-83081904D01*
X149559577Y-83031785D01*
X149600500Y-82879057D01*
X149600500Y-82720943D01*
X149600500Y-80979765D01*
X149620185Y-80912726D01*
X149621398Y-80910874D01*
X149622316Y-80909501D01*
X149709394Y-80779179D01*
X149769737Y-80633497D01*
X149800500Y-80478842D01*
X149800500Y-80321158D01*
X149800500Y-80321155D01*
X149800499Y-80321153D01*
X149770412Y-80169896D01*
X149769737Y-80166503D01*
X149767495Y-80161090D01*
X149709397Y-80020827D01*
X149709390Y-80020814D01*
X149621789Y-79889711D01*
X149621786Y-79889707D01*
X149510292Y-79778213D01*
X149510288Y-79778210D01*
X149379185Y-79690609D01*
X149379172Y-79690602D01*
X149233501Y-79630264D01*
X149233489Y-79630261D01*
X149078845Y-79599500D01*
X149078842Y-79599500D01*
X148921158Y-79599500D01*
X148921155Y-79599500D01*
X148766510Y-79630261D01*
X148766502Y-79630263D01*
X148691046Y-79661517D01*
X148621576Y-79668984D01*
X148559098Y-79637708D01*
X148523446Y-79577619D01*
X148525941Y-79507794D01*
X148543275Y-79474072D01*
X148568870Y-79438845D01*
X148683241Y-79214379D01*
X148761090Y-78974785D01*
X148800500Y-78725962D01*
X148800500Y-78474038D01*
X148761090Y-78225215D01*
X148683241Y-77985621D01*
X148683239Y-77985618D01*
X148683239Y-77985616D01*
X148641747Y-77904184D01*
X148568870Y-77761155D01*
X148473501Y-77629890D01*
X148420798Y-77557350D01*
X148420794Y-77557345D01*
X148242654Y-77379205D01*
X148242649Y-77379201D01*
X148038848Y-77231132D01*
X148038847Y-77231131D01*
X148038845Y-77231130D01*
X147969186Y-77195637D01*
X147868205Y-77144184D01*
X147817409Y-77096209D01*
X147800500Y-77033699D01*
X147800500Y-72100097D01*
X147809144Y-72070657D01*
X147815667Y-72040672D01*
X147819422Y-72035654D01*
X147820185Y-72033058D01*
X147836812Y-72012422D01*
X147870446Y-71978788D01*
X147910667Y-71951913D01*
X147989179Y-71919394D01*
X148016407Y-71901200D01*
X148120876Y-71831398D01*
X148187553Y-71810520D01*
X148189766Y-71810500D01*
X148558059Y-71810500D01*
X148625098Y-71830185D01*
X148670853Y-71882989D01*
X148680797Y-71952147D01*
X148651772Y-72015703D01*
X148645740Y-72022181D01*
X148578213Y-72089707D01*
X148578210Y-72089711D01*
X148490609Y-72220814D01*
X148490602Y-72220827D01*
X148430264Y-72366498D01*
X148430261Y-72366510D01*
X148399500Y-72521153D01*
X148399500Y-72678846D01*
X148430261Y-72833489D01*
X148430264Y-72833501D01*
X148490602Y-72979172D01*
X148490609Y-72979185D01*
X148578210Y-73110288D01*
X148578213Y-73110292D01*
X148689707Y-73221786D01*
X148689711Y-73221789D01*
X148820814Y-73309390D01*
X148820827Y-73309397D01*
X148966498Y-73369735D01*
X148966503Y-73369737D01*
X149121153Y-73400499D01*
X149121156Y-73400500D01*
X149121158Y-73400500D01*
X149278844Y-73400500D01*
X149278845Y-73400499D01*
X149433497Y-73369737D01*
X149579179Y-73309394D01*
X149624903Y-73278842D01*
X149712371Y-73220398D01*
X149779048Y-73199520D01*
X149781262Y-73199500D01*
X150988723Y-73199500D01*
X151055762Y-73219185D01*
X151101517Y-73271989D01*
X151111461Y-73341147D01*
X151106654Y-73361818D01*
X151083242Y-73433869D01*
X151083242Y-73433872D01*
X151050000Y-73643753D01*
X151050000Y-73856246D01*
X151083242Y-74066127D01*
X151083242Y-74066130D01*
X151148904Y-74268217D01*
X151245375Y-74457550D01*
X151284728Y-74511716D01*
X151917036Y-73879407D01*
X151934075Y-73942993D01*
X151999901Y-74057007D01*
X152092993Y-74150099D01*
X152207007Y-74215925D01*
X152270590Y-74232962D01*
X151638282Y-74865269D01*
X151638282Y-74865270D01*
X151692449Y-74904624D01*
X151881782Y-75001095D01*
X152083870Y-75066757D01*
X152293754Y-75100000D01*
X152506246Y-75100000D01*
X152716127Y-75066757D01*
X152716130Y-75066757D01*
X152918217Y-75001095D01*
X153107554Y-74904622D01*
X153161716Y-74865270D01*
X153161717Y-74865270D01*
X152529408Y-74232962D01*
X152592993Y-74215925D01*
X152707007Y-74150099D01*
X152800099Y-74057007D01*
X152865925Y-73942993D01*
X152882962Y-73879409D01*
X153515270Y-74511717D01*
X153515270Y-74511716D01*
X153554622Y-74457554D01*
X153651095Y-74268217D01*
X153716757Y-74066130D01*
X153716757Y-74066127D01*
X153750000Y-73856246D01*
X153750000Y-73643753D01*
X153716757Y-73433872D01*
X153716757Y-73433869D01*
X153693346Y-73361818D01*
X153691351Y-73291977D01*
X153727431Y-73232144D01*
X153790132Y-73201316D01*
X153811277Y-73199500D01*
X154681954Y-73199500D01*
X154748993Y-73219185D01*
X154794748Y-73271989D01*
X154803571Y-73299309D01*
X154830261Y-73433489D01*
X154830264Y-73433501D01*
X154890602Y-73579172D01*
X154890609Y-73579185D01*
X154978210Y-73710288D01*
X154978213Y-73710292D01*
X155089707Y-73821786D01*
X155089711Y-73821789D01*
X155220814Y-73909390D01*
X155220827Y-73909397D01*
X155366498Y-73969735D01*
X155366503Y-73969737D01*
X155521153Y-74000499D01*
X155521156Y-74000500D01*
X155521158Y-74000500D01*
X155678844Y-74000500D01*
X155678845Y-74000499D01*
X155833497Y-73969737D01*
X155979179Y-73909394D01*
X155979184Y-73909390D01*
X155979187Y-73909389D01*
X156013748Y-73886296D01*
X156080425Y-73865417D01*
X156147805Y-73883901D01*
X156194496Y-73935879D01*
X156200571Y-73951078D01*
X156248444Y-74098416D01*
X156344951Y-74287820D01*
X156469890Y-74459786D01*
X156620213Y-74610109D01*
X156792182Y-74735050D01*
X156800946Y-74739516D01*
X156851742Y-74787491D01*
X156868536Y-74855312D01*
X156845998Y-74921447D01*
X156800946Y-74960484D01*
X156792182Y-74964949D01*
X156620213Y-75089890D01*
X156469890Y-75240213D01*
X156344951Y-75412179D01*
X156248444Y-75601585D01*
X156182753Y-75803760D01*
X156149500Y-76013713D01*
X156149500Y-76226287D01*
X156182754Y-76436243D01*
X156205632Y-76506655D01*
X156248444Y-76638414D01*
X156344951Y-76827820D01*
X156469890Y-76999786D01*
X156620213Y-77150109D01*
X156792182Y-77275050D01*
X156800946Y-77279516D01*
X156851742Y-77327491D01*
X156868536Y-77395312D01*
X156845998Y-77461447D01*
X156800946Y-77500484D01*
X156792182Y-77504949D01*
X156620213Y-77629890D01*
X156469890Y-77780213D01*
X156344951Y-77952179D01*
X156248444Y-78141585D01*
X156182753Y-78343760D01*
X156149500Y-78553713D01*
X156149500Y-78766286D01*
X156172232Y-78909814D01*
X156182754Y-78976243D01*
X156192353Y-79005787D01*
X156248444Y-79178414D01*
X156344951Y-79367820D01*
X156469890Y-79539786D01*
X156620213Y-79690109D01*
X156792182Y-79815050D01*
X156800946Y-79819516D01*
X156851742Y-79867491D01*
X156868536Y-79935312D01*
X156845998Y-80001447D01*
X156800946Y-80040484D01*
X156792182Y-80044949D01*
X156620213Y-80169890D01*
X156469890Y-80320213D01*
X156344951Y-80492179D01*
X156248444Y-80681585D01*
X156182753Y-80883760D01*
X156167157Y-80982233D01*
X156149500Y-81093713D01*
X156149500Y-81306287D01*
X156182754Y-81516243D01*
X156246478Y-81712365D01*
X156248444Y-81718414D01*
X156344951Y-81907820D01*
X156469890Y-82079786D01*
X156620213Y-82230109D01*
X156792179Y-82355048D01*
X156792181Y-82355049D01*
X156792184Y-82355051D01*
X156801493Y-82359794D01*
X156852290Y-82407766D01*
X156869087Y-82475587D01*
X156846552Y-82541722D01*
X156801505Y-82580760D01*
X156792446Y-82585376D01*
X156792440Y-82585380D01*
X156738282Y-82624727D01*
X156738282Y-82624728D01*
X157370591Y-83257037D01*
X157307007Y-83274075D01*
X157192993Y-83339901D01*
X157099901Y-83432993D01*
X157034075Y-83547007D01*
X157017037Y-83610591D01*
X156384728Y-82978282D01*
X156384727Y-82978282D01*
X156345380Y-83032439D01*
X156248904Y-83221782D01*
X156183242Y-83423869D01*
X156183242Y-83423872D01*
X156150000Y-83633753D01*
X156150000Y-83846246D01*
X156183242Y-84056127D01*
X156183242Y-84056130D01*
X156248904Y-84258217D01*
X156345375Y-84447550D01*
X156384728Y-84501716D01*
X157017037Y-83869408D01*
X157034075Y-83932993D01*
X157099901Y-84047007D01*
X157192993Y-84140099D01*
X157307007Y-84205925D01*
X157370590Y-84222962D01*
X156700370Y-84893181D01*
X156639047Y-84926666D01*
X156612698Y-84929500D01*
X156602134Y-84929500D01*
X156602123Y-84929501D01*
X156542516Y-84935908D01*
X156407671Y-84986202D01*
X156407664Y-84986206D01*
X156292455Y-85072452D01*
X156292452Y-85072455D01*
X156206206Y-85187664D01*
X156206202Y-85187671D01*
X156155908Y-85322517D01*
X156153765Y-85342454D01*
X156149501Y-85382123D01*
X156149500Y-85382135D01*
X156149500Y-87177870D01*
X156149501Y-87177876D01*
X156155908Y-87237483D01*
X156206202Y-87372328D01*
X156206206Y-87372335D01*
X156292452Y-87487544D01*
X156292455Y-87487547D01*
X156407664Y-87573793D01*
X156407671Y-87573797D01*
X156542517Y-87624091D01*
X156542516Y-87624091D01*
X156549444Y-87624835D01*
X156602127Y-87630500D01*
X158397872Y-87630499D01*
X158457483Y-87624091D01*
X158592331Y-87573796D01*
X158707546Y-87487546D01*
X158793796Y-87372331D01*
X158844091Y-87237483D01*
X158850500Y-87177873D01*
X158850499Y-85382128D01*
X158844091Y-85322517D01*
X158836477Y-85302104D01*
X158793797Y-85187671D01*
X158793793Y-85187664D01*
X158707547Y-85072455D01*
X158707544Y-85072452D01*
X158592335Y-84986206D01*
X158592328Y-84986202D01*
X158457482Y-84935908D01*
X158457483Y-84935908D01*
X158397883Y-84929501D01*
X158397881Y-84929500D01*
X158397873Y-84929500D01*
X158397865Y-84929500D01*
X158387309Y-84929500D01*
X158320270Y-84909815D01*
X158299628Y-84893181D01*
X157629408Y-84222962D01*
X157692993Y-84205925D01*
X157807007Y-84140099D01*
X157900099Y-84047007D01*
X157965925Y-83932993D01*
X157982962Y-83869408D01*
X158615270Y-84501717D01*
X158615270Y-84501716D01*
X158654622Y-84447554D01*
X158751095Y-84258217D01*
X158816757Y-84056130D01*
X158816757Y-84056127D01*
X158850000Y-83846246D01*
X158850000Y-83633753D01*
X158816757Y-83423872D01*
X158816757Y-83423869D01*
X158751095Y-83221782D01*
X158654624Y-83032449D01*
X158615270Y-82978282D01*
X158615269Y-82978282D01*
X157982962Y-83610590D01*
X157965925Y-83547007D01*
X157900099Y-83432993D01*
X157807007Y-83339901D01*
X157692993Y-83274075D01*
X157629409Y-83257037D01*
X158261716Y-82624728D01*
X158207547Y-82585373D01*
X158207547Y-82585372D01*
X158198500Y-82580763D01*
X158147706Y-82532788D01*
X158130912Y-82464966D01*
X158153451Y-82398832D01*
X158198508Y-82359793D01*
X158207816Y-82355051D01*
X158346134Y-82254558D01*
X158379786Y-82230109D01*
X158379788Y-82230106D01*
X158379792Y-82230104D01*
X158530104Y-82079792D01*
X158530106Y-82079788D01*
X158530109Y-82079786D01*
X158655048Y-81907820D01*
X158655047Y-81907820D01*
X158655051Y-81907816D01*
X158751557Y-81718412D01*
X158817246Y-81516243D01*
X158850500Y-81306287D01*
X158850500Y-81093713D01*
X158817246Y-80883757D01*
X158751557Y-80681588D01*
X158655051Y-80492184D01*
X158655049Y-80492181D01*
X158655048Y-80492179D01*
X158530109Y-80320213D01*
X158379786Y-80169890D01*
X158207820Y-80044951D01*
X158207115Y-80044591D01*
X158199054Y-80040485D01*
X158148259Y-79992512D01*
X158131463Y-79924692D01*
X158153999Y-79858556D01*
X158199054Y-79819515D01*
X158207816Y-79815051D01*
X158271810Y-79768557D01*
X158379786Y-79690109D01*
X158379788Y-79690106D01*
X158379792Y-79690104D01*
X158530104Y-79539792D01*
X158530106Y-79539788D01*
X158530109Y-79539786D01*
X158655048Y-79367820D01*
X158655047Y-79367820D01*
X158655051Y-79367816D01*
X158751557Y-79178412D01*
X158817246Y-78976243D01*
X158850500Y-78766287D01*
X158850500Y-78553713D01*
X158817246Y-78343757D01*
X158751557Y-78141588D01*
X158655051Y-77952184D01*
X158655049Y-77952181D01*
X158655048Y-77952179D01*
X158530109Y-77780213D01*
X158379786Y-77629890D01*
X158207820Y-77504951D01*
X158207115Y-77504591D01*
X158199054Y-77500485D01*
X158148259Y-77452512D01*
X158131463Y-77384692D01*
X158153999Y-77318556D01*
X158199054Y-77279515D01*
X158207816Y-77275051D01*
X158268266Y-77231132D01*
X158379786Y-77150109D01*
X158379788Y-77150106D01*
X158379792Y-77150104D01*
X158530104Y-76999792D01*
X158530106Y-76999788D01*
X158530109Y-76999786D01*
X158655048Y-76827820D01*
X158655047Y-76827820D01*
X158655051Y-76827816D01*
X158751557Y-76638412D01*
X158817246Y-76436243D01*
X158850500Y-76226287D01*
X158850500Y-76013713D01*
X158817246Y-75803757D01*
X158751557Y-75601588D01*
X158655051Y-75412184D01*
X158655049Y-75412181D01*
X158655048Y-75412179D01*
X158530109Y-75240213D01*
X158379786Y-75089890D01*
X158207820Y-74964951D01*
X158207115Y-74964591D01*
X158199054Y-74960485D01*
X158148259Y-74912512D01*
X158131463Y-74844692D01*
X158153999Y-74778556D01*
X158199054Y-74739515D01*
X158207816Y-74735051D01*
X158229789Y-74719086D01*
X158379786Y-74610109D01*
X158379788Y-74610106D01*
X158379792Y-74610104D01*
X158530104Y-74459792D01*
X158530106Y-74459788D01*
X158530109Y-74459786D01*
X158655048Y-74287820D01*
X158655047Y-74287820D01*
X158655051Y-74287816D01*
X158751557Y-74098412D01*
X158817246Y-73896243D01*
X158850500Y-73686287D01*
X158850500Y-73473713D01*
X158817246Y-73263757D01*
X158751557Y-73061588D01*
X158655051Y-72872184D01*
X158655049Y-72872181D01*
X158655048Y-72872179D01*
X158530109Y-72700213D01*
X158379786Y-72549890D01*
X158207820Y-72424951D01*
X158207115Y-72424591D01*
X158199054Y-72420485D01*
X158148259Y-72372512D01*
X158131463Y-72304692D01*
X158153999Y-72238556D01*
X158199054Y-72199515D01*
X158207816Y-72195051D01*
X158229789Y-72179086D01*
X158379786Y-72070109D01*
X158379788Y-72070106D01*
X158379792Y-72070104D01*
X158530104Y-71919792D01*
X158530106Y-71919788D01*
X158530109Y-71919786D01*
X158655048Y-71747820D01*
X158655047Y-71747820D01*
X158655051Y-71747816D01*
X158751557Y-71558412D01*
X158817246Y-71356243D01*
X158850500Y-71146287D01*
X158850500Y-70933713D01*
X158817246Y-70723757D01*
X158751557Y-70521588D01*
X158655051Y-70332184D01*
X158655049Y-70332181D01*
X158655048Y-70332179D01*
X158530109Y-70160213D01*
X158379786Y-70009890D01*
X158207820Y-69884951D01*
X158207115Y-69884591D01*
X158199054Y-69880485D01*
X158148259Y-69832512D01*
X158131463Y-69764692D01*
X158153999Y-69698556D01*
X158199054Y-69659515D01*
X158207816Y-69655051D01*
X158352694Y-69549792D01*
X158379786Y-69530109D01*
X158379788Y-69530106D01*
X158379792Y-69530104D01*
X158530104Y-69379792D01*
X158530106Y-69379788D01*
X158530109Y-69379786D01*
X158655048Y-69207820D01*
X158655047Y-69207820D01*
X158655051Y-69207816D01*
X158751557Y-69018412D01*
X158817246Y-68816243D01*
X158850500Y-68606287D01*
X158850500Y-68393713D01*
X158817246Y-68183757D01*
X158751557Y-67981588D01*
X158655051Y-67792184D01*
X158655049Y-67792181D01*
X158655048Y-67792179D01*
X158530109Y-67620213D01*
X158379786Y-67469890D01*
X158207820Y-67344951D01*
X158207115Y-67344591D01*
X158199054Y-67340485D01*
X158148259Y-67292512D01*
X158131463Y-67224692D01*
X158153999Y-67158556D01*
X158199054Y-67119515D01*
X158207816Y-67115051D01*
X158352694Y-67009792D01*
X158379786Y-66990109D01*
X158379788Y-66990106D01*
X158379792Y-66990104D01*
X158530104Y-66839792D01*
X158530106Y-66839788D01*
X158530109Y-66839786D01*
X158655048Y-66667820D01*
X158655047Y-66667820D01*
X158655051Y-66667816D01*
X158751557Y-66478412D01*
X158817246Y-66276243D01*
X158850500Y-66066287D01*
X158850500Y-65853713D01*
X158817246Y-65643757D01*
X158751557Y-65441588D01*
X158655051Y-65252184D01*
X158655049Y-65252181D01*
X158655048Y-65252179D01*
X158530109Y-65080213D01*
X158379786Y-64929890D01*
X158207820Y-64804951D01*
X158207115Y-64804591D01*
X158199054Y-64800485D01*
X158148259Y-64752512D01*
X158131463Y-64684692D01*
X158153999Y-64618556D01*
X158199054Y-64579515D01*
X158207816Y-64575051D01*
X158296954Y-64510289D01*
X158379786Y-64450109D01*
X158379788Y-64450106D01*
X158379792Y-64450104D01*
X158530104Y-64299792D01*
X158530106Y-64299788D01*
X158530109Y-64299786D01*
X158655048Y-64127820D01*
X158655047Y-64127820D01*
X158655051Y-64127816D01*
X158751557Y-63938412D01*
X158817246Y-63736243D01*
X158850500Y-63526287D01*
X158850500Y-63313713D01*
X158817246Y-63103757D01*
X158751557Y-62901588D01*
X158655051Y-62712184D01*
X158655049Y-62712181D01*
X158655048Y-62712179D01*
X158530109Y-62540213D01*
X158379786Y-62389890D01*
X158207820Y-62264951D01*
X158207115Y-62264591D01*
X158199054Y-62260485D01*
X158148259Y-62212512D01*
X158131463Y-62144692D01*
X158153999Y-62078556D01*
X158199054Y-62039515D01*
X158207816Y-62035051D01*
X158245760Y-62007483D01*
X158379786Y-61910109D01*
X158379788Y-61910106D01*
X158379792Y-61910104D01*
X158530104Y-61759792D01*
X158530106Y-61759788D01*
X158530109Y-61759786D01*
X158655048Y-61587820D01*
X158655047Y-61587820D01*
X158655051Y-61587816D01*
X158751557Y-61398412D01*
X158817246Y-61196243D01*
X158850500Y-60986287D01*
X158850500Y-60773713D01*
X158817246Y-60563757D01*
X158751557Y-60361588D01*
X158655051Y-60172184D01*
X158655049Y-60172181D01*
X158655048Y-60172179D01*
X158530109Y-60000213D01*
X158379786Y-59849890D01*
X158207820Y-59724951D01*
X158207115Y-59724591D01*
X158199054Y-59720485D01*
X158148259Y-59672512D01*
X158131463Y-59604692D01*
X158153999Y-59538556D01*
X158199054Y-59499515D01*
X158207816Y-59495051D01*
X158229789Y-59479086D01*
X158379786Y-59370109D01*
X158379788Y-59370106D01*
X158379792Y-59370104D01*
X158530104Y-59219792D01*
X158530106Y-59219788D01*
X158530109Y-59219786D01*
X158655048Y-59047820D01*
X158655047Y-59047820D01*
X158655051Y-59047816D01*
X158751557Y-58858412D01*
X158817246Y-58656243D01*
X158850500Y-58446287D01*
X158850500Y-58233713D01*
X158817246Y-58023757D01*
X158751557Y-57821588D01*
X158655051Y-57632184D01*
X158655049Y-57632181D01*
X158655048Y-57632179D01*
X158530109Y-57460213D01*
X158379786Y-57309890D01*
X158207820Y-57184951D01*
X158207115Y-57184591D01*
X158199054Y-57180485D01*
X158148259Y-57132512D01*
X158131463Y-57064692D01*
X158153999Y-56998556D01*
X158199054Y-56959515D01*
X158207816Y-56955051D01*
X158229789Y-56939086D01*
X158379786Y-56830109D01*
X158379788Y-56830106D01*
X158379792Y-56830104D01*
X158530104Y-56679792D01*
X158530106Y-56679788D01*
X158530109Y-56679786D01*
X158655048Y-56507820D01*
X158655047Y-56507820D01*
X158655051Y-56507816D01*
X158751557Y-56318412D01*
X158817246Y-56116243D01*
X158850500Y-55906287D01*
X158850500Y-55693713D01*
X158817246Y-55483757D01*
X158751557Y-55281588D01*
X158655051Y-55092184D01*
X158655049Y-55092181D01*
X158655048Y-55092179D01*
X158530109Y-54920213D01*
X158379786Y-54769890D01*
X158207820Y-54644951D01*
X158207115Y-54644591D01*
X158199054Y-54640485D01*
X158148259Y-54592512D01*
X158131463Y-54524692D01*
X158153999Y-54458556D01*
X158199054Y-54419515D01*
X158207816Y-54415051D01*
X158267985Y-54371336D01*
X158379786Y-54290109D01*
X158379788Y-54290106D01*
X158379792Y-54290104D01*
X158530104Y-54139792D01*
X158530106Y-54139788D01*
X158530109Y-54139786D01*
X158655048Y-53967820D01*
X158655047Y-53967820D01*
X158655051Y-53967816D01*
X158751557Y-53778412D01*
X158817246Y-53576243D01*
X158850500Y-53366287D01*
X158850500Y-53153713D01*
X158817246Y-52943757D01*
X158751557Y-52741588D01*
X158655051Y-52552184D01*
X158655049Y-52552181D01*
X158655048Y-52552179D01*
X158530109Y-52380213D01*
X158379786Y-52229890D01*
X158207820Y-52104951D01*
X158207115Y-52104591D01*
X158199054Y-52100485D01*
X158148259Y-52052512D01*
X158131463Y-51984692D01*
X158153999Y-51918556D01*
X158199054Y-51879515D01*
X158207816Y-51875051D01*
X158229789Y-51859086D01*
X158379786Y-51750109D01*
X158379788Y-51750106D01*
X158379792Y-51750104D01*
X158530104Y-51599792D01*
X158530106Y-51599788D01*
X158530109Y-51599786D01*
X158655048Y-51427820D01*
X158655047Y-51427820D01*
X158655051Y-51427816D01*
X158751557Y-51238412D01*
X158817246Y-51036243D01*
X158850500Y-50826287D01*
X158850500Y-50613713D01*
X158817246Y-50403757D01*
X158751557Y-50201588D01*
X158655051Y-50012184D01*
X158655049Y-50012181D01*
X158655048Y-50012179D01*
X158530109Y-49840213D01*
X158379786Y-49689890D01*
X158207820Y-49564951D01*
X158018414Y-49468444D01*
X158018413Y-49468443D01*
X158018412Y-49468443D01*
X157816243Y-49402754D01*
X157816241Y-49402753D01*
X157816240Y-49402753D01*
X157654957Y-49377208D01*
X157606287Y-49369500D01*
X157393713Y-49369500D01*
X157345042Y-49377208D01*
X157183760Y-49402753D01*
X156981585Y-49468444D01*
X156792179Y-49564951D01*
X156620213Y-49689890D01*
X156469890Y-49840213D01*
X156344951Y-50012179D01*
X156248444Y-50201585D01*
X156182753Y-50403760D01*
X156149500Y-50613713D01*
X156149500Y-50826287D01*
X156182754Y-51036243D01*
X156240557Y-51214143D01*
X156248444Y-51238414D01*
X156344951Y-51427820D01*
X156469890Y-51599786D01*
X156620213Y-51750109D01*
X156792182Y-51875050D01*
X156800946Y-51879516D01*
X156851742Y-51927491D01*
X156868536Y-51995312D01*
X156845998Y-52061447D01*
X156800946Y-52100484D01*
X156792182Y-52104949D01*
X156620213Y-52229890D01*
X156469890Y-52380213D01*
X156344951Y-52552179D01*
X156248444Y-52741585D01*
X156182753Y-52943760D01*
X156167443Y-53040426D01*
X156149500Y-53153713D01*
X156149500Y-53366287D01*
X156149806Y-53368216D01*
X156179715Y-53557059D01*
X156182754Y-53576243D01*
X156238446Y-53747646D01*
X156248444Y-53778414D01*
X156344951Y-53967820D01*
X156469890Y-54139786D01*
X156620213Y-54290109D01*
X156792182Y-54415050D01*
X156800946Y-54419516D01*
X156851742Y-54467491D01*
X156868536Y-54535312D01*
X156845998Y-54601447D01*
X156800946Y-54640484D01*
X156792182Y-54644949D01*
X156620213Y-54769890D01*
X156469890Y-54920213D01*
X156344951Y-55092179D01*
X156248444Y-55281585D01*
X156182753Y-55483760D01*
X156169377Y-55568216D01*
X156149500Y-55693713D01*
X156149500Y-55906287D01*
X156154735Y-55939338D01*
X156164226Y-55999266D01*
X156182754Y-56116243D01*
X156226507Y-56250901D01*
X156248444Y-56318414D01*
X156344951Y-56507820D01*
X156469890Y-56679786D01*
X156620213Y-56830109D01*
X156792182Y-56955050D01*
X156800946Y-56959516D01*
X156851742Y-57007491D01*
X156868536Y-57075312D01*
X156845998Y-57141447D01*
X156800946Y-57180484D01*
X156792182Y-57184949D01*
X156620213Y-57309890D01*
X156469890Y-57460213D01*
X156344951Y-57632179D01*
X156248444Y-57821585D01*
X156182753Y-58023760D01*
X156162111Y-58154092D01*
X156149500Y-58233713D01*
X156149500Y-58446287D01*
X156182754Y-58656243D01*
X156208700Y-58736097D01*
X156248444Y-58858414D01*
X156344951Y-59047820D01*
X156469890Y-59219786D01*
X156620213Y-59370109D01*
X156792182Y-59495050D01*
X156800946Y-59499516D01*
X156851742Y-59547491D01*
X156868536Y-59615312D01*
X156845998Y-59681447D01*
X156800946Y-59720484D01*
X156792182Y-59724949D01*
X156620213Y-59849890D01*
X156469890Y-60000213D01*
X156344951Y-60172179D01*
X156248444Y-60361585D01*
X156182753Y-60563760D01*
X156149500Y-60773713D01*
X156149500Y-60986286D01*
X156182753Y-61196239D01*
X156248444Y-61398414D01*
X156344951Y-61587820D01*
X156469890Y-61759786D01*
X156620213Y-61910109D01*
X156792182Y-62035050D01*
X156800946Y-62039516D01*
X156851742Y-62087491D01*
X156868536Y-62155312D01*
X156845998Y-62221447D01*
X156800946Y-62260484D01*
X156792182Y-62264949D01*
X156620213Y-62389890D01*
X156469890Y-62540213D01*
X156344951Y-62712179D01*
X156248444Y-62901585D01*
X156182753Y-63103760D01*
X156149500Y-63313713D01*
X156149500Y-63526286D01*
X156176425Y-63696287D01*
X156182754Y-63736243D01*
X156237989Y-63906239D01*
X156248444Y-63938414D01*
X156344951Y-64127820D01*
X156469890Y-64299786D01*
X156620213Y-64450109D01*
X156792182Y-64575050D01*
X156800946Y-64579516D01*
X156851742Y-64627491D01*
X156868536Y-64695312D01*
X156845998Y-64761447D01*
X156800946Y-64800484D01*
X156792182Y-64804949D01*
X156620213Y-64929890D01*
X156469890Y-65080213D01*
X156344951Y-65252179D01*
X156248444Y-65441585D01*
X156182753Y-65643760D01*
X156149500Y-65853713D01*
X156149500Y-66066286D01*
X156176425Y-66236287D01*
X156182754Y-66276243D01*
X156237989Y-66446239D01*
X156248444Y-66478414D01*
X156344951Y-66667820D01*
X156469890Y-66839786D01*
X156620213Y-66990109D01*
X156792182Y-67115050D01*
X156800946Y-67119516D01*
X156851742Y-67167491D01*
X156868536Y-67235312D01*
X156845998Y-67301447D01*
X156800946Y-67340484D01*
X156792182Y-67344949D01*
X156620213Y-67469890D01*
X156469890Y-67620213D01*
X156344951Y-67792179D01*
X156248444Y-67981585D01*
X156182753Y-68183760D01*
X156149500Y-68393713D01*
X156149500Y-68606286D01*
X156179956Y-68798582D01*
X156182754Y-68816243D01*
X156237989Y-68986239D01*
X156248444Y-69018414D01*
X156344951Y-69207820D01*
X156469890Y-69379786D01*
X156620213Y-69530109D01*
X156792182Y-69655050D01*
X156800946Y-69659516D01*
X156851742Y-69707491D01*
X156868536Y-69775312D01*
X156845998Y-69841447D01*
X156800946Y-69880484D01*
X156792182Y-69884949D01*
X156620213Y-70009890D01*
X156469890Y-70160213D01*
X156344951Y-70332179D01*
X156248444Y-70521585D01*
X156182753Y-70723760D01*
X156149500Y-70933713D01*
X156149500Y-71146286D01*
X156176425Y-71316287D01*
X156182754Y-71356243D01*
X156237989Y-71526239D01*
X156248444Y-71558414D01*
X156344951Y-71747820D01*
X156469890Y-71919786D01*
X156620213Y-72070109D01*
X156792182Y-72195050D01*
X156800946Y-72199516D01*
X156851742Y-72247491D01*
X156868536Y-72315312D01*
X156845998Y-72381447D01*
X156800946Y-72420484D01*
X156792182Y-72424949D01*
X156620213Y-72549890D01*
X156469890Y-72700213D01*
X156448878Y-72729134D01*
X156393547Y-72771798D01*
X156323934Y-72777776D01*
X156262140Y-72745168D01*
X156245460Y-72725136D01*
X156221792Y-72689715D01*
X156221786Y-72689707D01*
X156110292Y-72578213D01*
X156110288Y-72578210D01*
X155979185Y-72490609D01*
X155979172Y-72490602D01*
X155833501Y-72430264D01*
X155833491Y-72430261D01*
X155678149Y-72399361D01*
X155661392Y-72390595D01*
X155642914Y-72386576D01*
X155617877Y-72367833D01*
X155616238Y-72366976D01*
X155614660Y-72365425D01*
X155486590Y-72237355D01*
X155486588Y-72237352D01*
X155367717Y-72118481D01*
X155367716Y-72118480D01*
X155280904Y-72068360D01*
X155280904Y-72068359D01*
X155280900Y-72068358D01*
X155230785Y-72039423D01*
X155078057Y-71998499D01*
X154919943Y-71998499D01*
X154912347Y-71998499D01*
X154912331Y-71998500D01*
X153716290Y-71998500D01*
X153649251Y-71978815D01*
X153603496Y-71926011D01*
X153593552Y-71856853D01*
X153605805Y-71818205D01*
X153609731Y-71810500D01*
X153651557Y-71728412D01*
X153717246Y-71526243D01*
X153750500Y-71316287D01*
X153750500Y-71103713D01*
X153717246Y-70893757D01*
X153703506Y-70851473D01*
X153701512Y-70781635D01*
X153733755Y-70725478D01*
X155281520Y-69177716D01*
X155360577Y-69040784D01*
X155401501Y-68888057D01*
X155401501Y-68729942D01*
X155401501Y-68722347D01*
X155401500Y-68722329D01*
X155401500Y-58356945D01*
X155401499Y-58356941D01*
X155400409Y-58352874D01*
X155383596Y-58290124D01*
X155369332Y-58236886D01*
X155369332Y-58236885D01*
X155360578Y-58204217D01*
X155360577Y-58204216D01*
X155360577Y-58204215D01*
X155331639Y-58154095D01*
X155281520Y-58067284D01*
X155169716Y-57955480D01*
X155169715Y-57955479D01*
X155165385Y-57951149D01*
X155165374Y-57951139D01*
X154401818Y-57187583D01*
X154368333Y-57126260D01*
X154365499Y-57099902D01*
X154365499Y-56471401D01*
X154359431Y-56404617D01*
X154359428Y-56404606D01*
X154311532Y-56250901D01*
X154311531Y-56250900D01*
X154311531Y-56250898D01*
X154228236Y-56113112D01*
X154228234Y-56113110D01*
X154228233Y-56113108D01*
X154114391Y-55999266D01*
X154021349Y-55943020D01*
X153976602Y-55915969D01*
X153822887Y-55868070D01*
X153822885Y-55868069D01*
X153822883Y-55868069D01*
X153776117Y-55863819D01*
X153756091Y-55862000D01*
X153756088Y-55862000D01*
X153323901Y-55862000D01*
X153257117Y-55868068D01*
X153257106Y-55868071D01*
X153103400Y-55915967D01*
X153103396Y-55915969D01*
X153058649Y-55943020D01*
X152991094Y-55960856D01*
X152924621Y-55939338D01*
X152880333Y-55885297D01*
X152870500Y-55836903D01*
X152870500Y-55475002D01*
X152890185Y-55407963D01*
X152891398Y-55406111D01*
X152909394Y-55379179D01*
X152969737Y-55233497D01*
X153000500Y-55078842D01*
X153000500Y-54994168D01*
X153020185Y-54927129D01*
X153072989Y-54881374D01*
X153142147Y-54871430D01*
X153193392Y-54891067D01*
X153220812Y-54909389D01*
X153220827Y-54909397D01*
X153366498Y-54969735D01*
X153366503Y-54969737D01*
X153521153Y-55000499D01*
X153521156Y-55000500D01*
X153521158Y-55000500D01*
X153678844Y-55000500D01*
X153678845Y-55000499D01*
X153833497Y-54969737D01*
X153953059Y-54920213D01*
X153979172Y-54909397D01*
X153979172Y-54909396D01*
X153979179Y-54909394D01*
X154110289Y-54821789D01*
X154221789Y-54710289D01*
X154309394Y-54579179D01*
X154369737Y-54433497D01*
X154400500Y-54278842D01*
X154400500Y-54121158D01*
X154400500Y-54121155D01*
X154400499Y-54121153D01*
X154369738Y-53966510D01*
X154369737Y-53966503D01*
X154350866Y-53920943D01*
X154309397Y-53820827D01*
X154309390Y-53820814D01*
X154221789Y-53689711D01*
X154221786Y-53689707D01*
X154176819Y-53644740D01*
X154143334Y-53583417D01*
X154140500Y-53557059D01*
X154140500Y-51200986D01*
X154160185Y-51133947D01*
X154176820Y-51113304D01*
X154228233Y-51061891D01*
X154228236Y-51061888D01*
X154311531Y-50924102D01*
X154359430Y-50770387D01*
X154365500Y-50703591D01*
X154365499Y-49296410D01*
X154365499Y-49296409D01*
X154365499Y-49296401D01*
X154359431Y-49229617D01*
X154359428Y-49229606D01*
X154311532Y-49075901D01*
X154311305Y-49075396D01*
X154311249Y-49074992D01*
X154309300Y-49068737D01*
X154310339Y-49068413D01*
X154301738Y-49006184D01*
X154331109Y-48942788D01*
X154390092Y-48905334D01*
X154424378Y-48900500D01*
X159375500Y-48900500D01*
X159442539Y-48920185D01*
X159488294Y-48972989D01*
X159499500Y-49024500D01*
X159499500Y-87975500D01*
X159479815Y-88042539D01*
X159427011Y-88088294D01*
X159375500Y-88099500D01*
X154798431Y-88099500D01*
X154731392Y-88079815D01*
X154685637Y-88027011D01*
X154675693Y-87957853D01*
X154704718Y-87894297D01*
X154742136Y-87865015D01*
X154744078Y-87864025D01*
X154874022Y-87797815D01*
X155052365Y-87668242D01*
X155208242Y-87512365D01*
X155337815Y-87334022D01*
X155437895Y-87137606D01*
X155506015Y-86927951D01*
X155540500Y-86710222D01*
X155540500Y-86489778D01*
X155506015Y-86272049D01*
X155437895Y-86062394D01*
X155437895Y-86062393D01*
X155383199Y-85955048D01*
X155337815Y-85865978D01*
X155272805Y-85776499D01*
X155208247Y-85687641D01*
X155208243Y-85687636D01*
X155052365Y-85531758D01*
X154979921Y-85479125D01*
X154979919Y-85479122D01*
X154874025Y-85402187D01*
X154874024Y-85402186D01*
X154874022Y-85402185D01*
X154756791Y-85342452D01*
X154677606Y-85302104D01*
X154677603Y-85302103D01*
X154467952Y-85233985D01*
X154288250Y-85205523D01*
X154269018Y-85196406D01*
X154248221Y-85191882D01*
X154228790Y-85177336D01*
X154225115Y-85175594D01*
X154219967Y-85170731D01*
X154174799Y-85125563D01*
X154141314Y-85064240D01*
X154146298Y-84994548D01*
X154150000Y-84988787D01*
X154150000Y-84975000D01*
X154650000Y-84975000D01*
X154912473Y-84975000D01*
X154912485Y-84974999D01*
X155015189Y-84964506D01*
X155015196Y-84964505D01*
X155181618Y-84909358D01*
X155181623Y-84909356D01*
X155330844Y-84817315D01*
X155454815Y-84693344D01*
X155546856Y-84544123D01*
X155546858Y-84544118D01*
X155602005Y-84377696D01*
X155602006Y-84377689D01*
X155612499Y-84274985D01*
X155612500Y-84274972D01*
X155612500Y-83850000D01*
X154650000Y-83850000D01*
X154650000Y-84975000D01*
X154150000Y-84975000D01*
X154150000Y-83850000D01*
X153187500Y-83850000D01*
X153187500Y-84084539D01*
X153167815Y-84151578D01*
X153115011Y-84197333D01*
X153087692Y-84206156D01*
X152966508Y-84230261D01*
X152966498Y-84230264D01*
X152820815Y-84290607D01*
X152820437Y-84290810D01*
X152820216Y-84290855D01*
X152815192Y-84292937D01*
X152814797Y-84291983D01*
X152752032Y-84305042D01*
X152686792Y-84280032D01*
X152645430Y-84223721D01*
X152638000Y-84181443D01*
X152638000Y-82924997D01*
X152637999Y-82924984D01*
X152627499Y-82822204D01*
X152627499Y-82822203D01*
X152572314Y-82655666D01*
X152553230Y-82624727D01*
X152480213Y-82506348D01*
X152480210Y-82506344D01*
X152386046Y-82412180D01*
X152352561Y-82350857D01*
X152357545Y-82281165D01*
X152399417Y-82225232D01*
X152464881Y-82200815D01*
X152473725Y-82200499D01*
X152607872Y-82200499D01*
X152667483Y-82194091D01*
X152802331Y-82143796D01*
X152917546Y-82057546D01*
X153003796Y-81942331D01*
X153031429Y-81868243D01*
X153033601Y-81862420D01*
X153075471Y-81806486D01*
X153140936Y-81782068D01*
X153209209Y-81796919D01*
X153237464Y-81818071D01*
X153287636Y-81868243D01*
X153287641Y-81868247D01*
X153389603Y-81942326D01*
X153465978Y-81997815D01*
X153612804Y-82072627D01*
X153663600Y-82120602D01*
X153680395Y-82188423D01*
X153657857Y-82254558D01*
X153621606Y-82288650D01*
X153469160Y-82382680D01*
X153469156Y-82382683D01*
X153345184Y-82506655D01*
X153253143Y-82655876D01*
X153253141Y-82655881D01*
X153197994Y-82822303D01*
X153197993Y-82822310D01*
X153187500Y-82925014D01*
X153187500Y-83350000D01*
X155612500Y-83350000D01*
X155612500Y-82925027D01*
X155612499Y-82925014D01*
X155602006Y-82822310D01*
X155602005Y-82822303D01*
X155546858Y-82655881D01*
X155546856Y-82655876D01*
X155454815Y-82506655D01*
X155330844Y-82382684D01*
X155181623Y-82290643D01*
X155181618Y-82290641D01*
X155015196Y-82235494D01*
X155015189Y-82235493D01*
X154977701Y-82231663D01*
X154913010Y-82205266D01*
X154872859Y-82148085D01*
X154869997Y-82078274D01*
X154905331Y-82017997D01*
X154930031Y-82000622D01*
X154929870Y-82000360D01*
X154934020Y-81997816D01*
X154934030Y-81997810D01*
X155112358Y-81868247D01*
X155112356Y-81868247D01*
X155112365Y-81868242D01*
X155268242Y-81712365D01*
X155397815Y-81534022D01*
X155497895Y-81337606D01*
X155566015Y-81127951D01*
X155600500Y-80910222D01*
X155600500Y-80689778D01*
X155566015Y-80472049D01*
X155497895Y-80262394D01*
X155497895Y-80262393D01*
X155449039Y-80166510D01*
X155397815Y-80065978D01*
X155339501Y-79985715D01*
X155268247Y-79887641D01*
X155268243Y-79887636D01*
X155112363Y-79731756D01*
X155112358Y-79731752D01*
X154934025Y-79602187D01*
X154934024Y-79602186D01*
X154934022Y-79602185D01*
X154816791Y-79542452D01*
X154737606Y-79502104D01*
X154737603Y-79502103D01*
X154527952Y-79433985D01*
X154419086Y-79416742D01*
X154310222Y-79399500D01*
X154089778Y-79399500D01*
X154017201Y-79410995D01*
X153872047Y-79433985D01*
X153662396Y-79502103D01*
X153662393Y-79502104D01*
X153465974Y-79602187D01*
X153287641Y-79731752D01*
X153287636Y-79731756D01*
X153237463Y-79781929D01*
X153176140Y-79815413D01*
X153106448Y-79810428D01*
X153050515Y-79768557D01*
X153033601Y-79737580D01*
X153003797Y-79657671D01*
X153003793Y-79657664D01*
X152917547Y-79542455D01*
X152917544Y-79542452D01*
X152802335Y-79456206D01*
X152802328Y-79456202D01*
X152667482Y-79405908D01*
X152667483Y-79405908D01*
X152607883Y-79399501D01*
X152607881Y-79399500D01*
X152607873Y-79399500D01*
X152607865Y-79399500D01*
X152384500Y-79399500D01*
X152317461Y-79379815D01*
X152271706Y-79327011D01*
X152260500Y-79275500D01*
X152260500Y-78945918D01*
X152280185Y-78878879D01*
X152319402Y-78840380D01*
X152356155Y-78817711D01*
X152480211Y-78693655D01*
X152572314Y-78544334D01*
X152627499Y-78377797D01*
X152638000Y-78275008D01*
X152638000Y-78274985D01*
X153187500Y-78274985D01*
X153197993Y-78377689D01*
X153197994Y-78377696D01*
X153253141Y-78544118D01*
X153253143Y-78544123D01*
X153345184Y-78693344D01*
X153469155Y-78817315D01*
X153618376Y-78909356D01*
X153618381Y-78909358D01*
X153784803Y-78964505D01*
X153784810Y-78964506D01*
X153887514Y-78974999D01*
X153887527Y-78975000D01*
X154150000Y-78975000D01*
X154650000Y-78975000D01*
X154912473Y-78975000D01*
X154912485Y-78974999D01*
X155015189Y-78964506D01*
X155015196Y-78964505D01*
X155181618Y-78909358D01*
X155181623Y-78909356D01*
X155330844Y-78817315D01*
X155454815Y-78693344D01*
X155546856Y-78544123D01*
X155546858Y-78544118D01*
X155602005Y-78377696D01*
X155602006Y-78377689D01*
X155612499Y-78274985D01*
X155612500Y-78274972D01*
X155612500Y-77850000D01*
X154650000Y-77850000D01*
X154650000Y-78975000D01*
X154150000Y-78975000D01*
X154150000Y-77850000D01*
X153187500Y-77850000D01*
X153187500Y-78274985D01*
X152638000Y-78274985D01*
X152638000Y-76925014D01*
X153187500Y-76925014D01*
X153187500Y-77350000D01*
X154150000Y-77350000D01*
X154650000Y-77350000D01*
X155612500Y-77350000D01*
X155612500Y-76925027D01*
X155612499Y-76925014D01*
X155602006Y-76822310D01*
X155602005Y-76822303D01*
X155546858Y-76655881D01*
X155546856Y-76655876D01*
X155454815Y-76506655D01*
X155330844Y-76382684D01*
X155181623Y-76290643D01*
X155181618Y-76290641D01*
X155015196Y-76235494D01*
X155015189Y-76235493D01*
X154912485Y-76225000D01*
X154650000Y-76225000D01*
X154650000Y-77350000D01*
X154150000Y-77350000D01*
X154150000Y-76225000D01*
X153887514Y-76225000D01*
X153784810Y-76235493D01*
X153784803Y-76235494D01*
X153618381Y-76290641D01*
X153618376Y-76290643D01*
X153469155Y-76382684D01*
X153345184Y-76506655D01*
X153253143Y-76655876D01*
X153253141Y-76655881D01*
X153197994Y-76822303D01*
X153197993Y-76822310D01*
X153187500Y-76925014D01*
X152638000Y-76925014D01*
X152638000Y-76924992D01*
X152627499Y-76822203D01*
X152572314Y-76655666D01*
X152480211Y-76506345D01*
X152356155Y-76382289D01*
X152356151Y-76382286D01*
X152206837Y-76290187D01*
X152206835Y-76290186D01*
X152123565Y-76262593D01*
X152040297Y-76235001D01*
X152040295Y-76235000D01*
X151937515Y-76224500D01*
X151937508Y-76224500D01*
X150912492Y-76224500D01*
X150912484Y-76224500D01*
X150809704Y-76235000D01*
X150809703Y-76235001D01*
X150643164Y-76290186D01*
X150643162Y-76290187D01*
X150493848Y-76382286D01*
X150493844Y-76382289D01*
X150369789Y-76506344D01*
X150369786Y-76506348D01*
X150277687Y-76655662D01*
X150277686Y-76655664D01*
X150222501Y-76822203D01*
X150222500Y-76822204D01*
X150212000Y-76924984D01*
X150212000Y-78275015D01*
X150222500Y-78377795D01*
X150222501Y-78377796D01*
X150277686Y-78544335D01*
X150277687Y-78544337D01*
X150369786Y-78693651D01*
X150369789Y-78693655D01*
X150493844Y-78817710D01*
X150493848Y-78817713D01*
X150643162Y-78909812D01*
X150643164Y-78909813D01*
X150643166Y-78909814D01*
X150809703Y-78964999D01*
X150912492Y-78975500D01*
X150935500Y-78975500D01*
X150944185Y-78978050D01*
X150953147Y-78976762D01*
X150977187Y-78987740D01*
X151002539Y-78995185D01*
X151008466Y-79002025D01*
X151016703Y-79005787D01*
X151030992Y-79028021D01*
X151048294Y-79047989D01*
X151050581Y-79058503D01*
X151054477Y-79064565D01*
X151059500Y-79099500D01*
X151059500Y-79275500D01*
X151039815Y-79342539D01*
X150987011Y-79388294D01*
X150935501Y-79399500D01*
X150712130Y-79399500D01*
X150712123Y-79399501D01*
X150652516Y-79405908D01*
X150517671Y-79456202D01*
X150517664Y-79456206D01*
X150402455Y-79542452D01*
X150402452Y-79542455D01*
X150316206Y-79657664D01*
X150316202Y-79657671D01*
X150265908Y-79792517D01*
X150259501Y-79852116D01*
X150259500Y-79852135D01*
X150259500Y-81747870D01*
X150259501Y-81747876D01*
X150265908Y-81807483D01*
X150316202Y-81942328D01*
X150316206Y-81942335D01*
X150402452Y-82057544D01*
X150402455Y-82057547D01*
X150517660Y-82143790D01*
X150517663Y-82143791D01*
X150517669Y-82143796D01*
X150517675Y-82143798D01*
X150522764Y-82146577D01*
X150572171Y-82195981D01*
X150587025Y-82264253D01*
X150562611Y-82329719D01*
X150528440Y-82360949D01*
X150493848Y-82382286D01*
X150493844Y-82382289D01*
X150369789Y-82506344D01*
X150369786Y-82506348D01*
X150277687Y-82655662D01*
X150277686Y-82655664D01*
X150222501Y-82822203D01*
X150222500Y-82822204D01*
X150212000Y-82924984D01*
X150212000Y-84275015D01*
X150222500Y-84377795D01*
X150222501Y-84377797D01*
X150243602Y-84441476D01*
X150277686Y-84544335D01*
X150277687Y-84544337D01*
X150369786Y-84693651D01*
X150369789Y-84693655D01*
X150493844Y-84817710D01*
X150493848Y-84817713D01*
X150643162Y-84909812D01*
X150643164Y-84909813D01*
X150643166Y-84909814D01*
X150739504Y-84941737D01*
X150759538Y-84955607D01*
X150781703Y-84965730D01*
X150787750Y-84975140D01*
X150796949Y-84981509D01*
X150806304Y-85004010D01*
X150819477Y-85024508D01*
X150821935Y-85041608D01*
X150823772Y-85046025D01*
X150824500Y-85059443D01*
X150824500Y-85075500D01*
X150804815Y-85142539D01*
X150752011Y-85188294D01*
X150700502Y-85199500D01*
X150652131Y-85199500D01*
X150652123Y-85199501D01*
X150592516Y-85205908D01*
X150457671Y-85256202D01*
X150457664Y-85256206D01*
X150342455Y-85342452D01*
X150342452Y-85342455D01*
X150256206Y-85457664D01*
X150256202Y-85457671D01*
X150205908Y-85592517D01*
X150199501Y-85652116D01*
X150199500Y-85652135D01*
X150199500Y-87547870D01*
X150199501Y-87547876D01*
X150205908Y-87607483D01*
X150256202Y-87742328D01*
X150256206Y-87742335D01*
X150342452Y-87857544D01*
X150342453Y-87857544D01*
X150342454Y-87857546D01*
X150367418Y-87876234D01*
X150409288Y-87932168D01*
X150414272Y-88001860D01*
X150380786Y-88063182D01*
X150319462Y-88096667D01*
X150293106Y-88099500D01*
X145224500Y-88099500D01*
X145157461Y-88079815D01*
X145111706Y-88027011D01*
X145100500Y-87975500D01*
X145100500Y-50703543D01*
X148905000Y-50703543D01*
X148911065Y-50770292D01*
X148958929Y-50923896D01*
X149042163Y-51061580D01*
X149155919Y-51175336D01*
X149293607Y-51258572D01*
X149293606Y-51258572D01*
X149447197Y-51306432D01*
X149447207Y-51306435D01*
X149479999Y-51309414D01*
X149480000Y-51309414D01*
X149480000Y-50250000D01*
X148905000Y-50250000D01*
X148905000Y-50703543D01*
X145100500Y-50703543D01*
X145100500Y-49024500D01*
X145120185Y-48957461D01*
X145172989Y-48911706D01*
X145224500Y-48900500D01*
X148846174Y-48900500D01*
X148913213Y-48920185D01*
G37*
%TD.AperFunction*%
%TA.AperFunction,Conductor*%
G36*
X152969147Y-58352873D02*
G01*
X153103398Y-58434031D01*
X153257113Y-58481930D01*
X153323909Y-58488000D01*
X153756090Y-58487999D01*
X153756098Y-58487999D01*
X153822880Y-58481931D01*
X153822882Y-58481930D01*
X153822887Y-58481930D01*
X153884597Y-58462699D01*
X153899075Y-58462461D01*
X153912642Y-58457401D01*
X153933308Y-58461896D01*
X153954458Y-58461548D01*
X153968028Y-58469449D01*
X153980915Y-58472253D01*
X154009169Y-58493404D01*
X154164181Y-58648416D01*
X154197666Y-58709739D01*
X154200500Y-58736097D01*
X154200500Y-60081953D01*
X154180815Y-60148992D01*
X154128011Y-60194747D01*
X154100692Y-60203570D01*
X153966508Y-60230261D01*
X153966503Y-60230263D01*
X153920784Y-60249200D01*
X153851315Y-60256667D01*
X153788836Y-60225392D01*
X153753184Y-60165302D01*
X153750043Y-60147890D01*
X153744091Y-60092516D01*
X153693797Y-59957671D01*
X153693793Y-59957664D01*
X153607547Y-59842455D01*
X153607544Y-59842452D01*
X153492335Y-59756206D01*
X153492328Y-59756202D01*
X153357482Y-59705908D01*
X153357483Y-59705908D01*
X153297883Y-59699501D01*
X153297881Y-59699500D01*
X153297873Y-59699500D01*
X153297864Y-59699500D01*
X151502129Y-59699500D01*
X151502123Y-59699501D01*
X151442516Y-59705908D01*
X151307671Y-59756202D01*
X151307664Y-59756206D01*
X151192455Y-59842452D01*
X151192452Y-59842455D01*
X151106206Y-59957664D01*
X151106202Y-59957671D01*
X151055908Y-60092517D01*
X151049501Y-60152116D01*
X151049500Y-60152135D01*
X151049500Y-61947870D01*
X151049501Y-61947876D01*
X151055908Y-62007483D01*
X151106202Y-62142328D01*
X151106206Y-62142335D01*
X151192452Y-62257544D01*
X151192455Y-62257547D01*
X151307664Y-62343793D01*
X151307671Y-62343797D01*
X151439082Y-62392810D01*
X151495016Y-62434681D01*
X151519433Y-62500145D01*
X151504582Y-62568418D01*
X151483431Y-62596673D01*
X151369889Y-62710215D01*
X151244948Y-62882184D01*
X151244947Y-62882185D01*
X151224765Y-62921795D01*
X151176791Y-62972591D01*
X151114281Y-62989500D01*
X150096670Y-62989500D01*
X150096654Y-62989499D01*
X150089058Y-62989499D01*
X149930943Y-62989499D01*
X149854579Y-63009961D01*
X149778214Y-63030423D01*
X149778209Y-63030426D01*
X149641290Y-63109475D01*
X149641286Y-63109478D01*
X149585337Y-63165427D01*
X149569108Y-63174287D01*
X149555895Y-63187217D01*
X149525710Y-63197984D01*
X149524013Y-63198911D01*
X149522694Y-63199191D01*
X149521195Y-63199500D01*
X149521158Y-63199500D01*
X149366503Y-63230263D01*
X149361074Y-63232511D01*
X149349538Y-63234890D01*
X149325774Y-63232930D01*
X149302056Y-63235396D01*
X149291589Y-63230110D01*
X149279905Y-63229147D01*
X149260972Y-63214650D01*
X149239687Y-63203902D01*
X149233740Y-63193798D01*
X149224430Y-63186670D01*
X149216340Y-63164237D01*
X149204245Y-63143689D01*
X149201795Y-63123906D01*
X149200727Y-63120944D01*
X149201182Y-63118955D01*
X149200500Y-63113444D01*
X149200500Y-58573603D01*
X149220185Y-58506564D01*
X149272989Y-58460809D01*
X149342147Y-58450865D01*
X149361379Y-58455214D01*
X149447113Y-58481930D01*
X149513909Y-58488000D01*
X149946090Y-58487999D01*
X149946098Y-58487999D01*
X150012882Y-58481931D01*
X150012885Y-58481930D01*
X150012887Y-58481930D01*
X150166602Y-58434031D01*
X150300852Y-58352873D01*
X150368404Y-58335038D01*
X150429147Y-58352873D01*
X150563398Y-58434031D01*
X150717113Y-58481930D01*
X150783909Y-58488000D01*
X151216090Y-58487999D01*
X151216098Y-58487999D01*
X151282882Y-58481931D01*
X151282885Y-58481930D01*
X151282887Y-58481930D01*
X151436602Y-58434031D01*
X151570852Y-58352873D01*
X151638404Y-58335038D01*
X151699147Y-58352873D01*
X151833398Y-58434031D01*
X151987113Y-58481930D01*
X152053909Y-58488000D01*
X152486090Y-58487999D01*
X152486098Y-58487999D01*
X152552882Y-58481931D01*
X152552885Y-58481930D01*
X152552887Y-58481930D01*
X152706602Y-58434031D01*
X152840852Y-58352873D01*
X152908404Y-58335038D01*
X152969147Y-58352873D01*
G37*
%TD.AperFunction*%
%TD*%
M02*
