%TF.GenerationSoftware,KiCad,Pcbnew,9.0.2+dfsg-1*%
%TF.CreationDate,2025-10-31T17:19:17+01:00*%
%TF.ProjectId,attiny,61747469-6e79-42e6-9b69-6361645f7063,rev?*%
%TF.SameCoordinates,Original*%
%TF.FileFunction,Other,User*%
%FSLAX46Y46*%
G04 Gerber Fmt 4.6, Leading zero omitted, Abs format (unit mm)*
G04 Created by KiCad (PCBNEW 9.0.2+dfsg-1) date 2025-10-31 17:19:17*
%MOMM*%
%LPD*%
G01*
G04 APERTURE LIST*
%ADD10C,0.050000*%
G04 APERTURE END LIST*
D10*
%TO.C,D1*%
X150510000Y-79290000D02*
X150510000Y-82310000D01*
X150510000Y-82310000D02*
X155350000Y-82310000D01*
X155350000Y-79290000D02*
X150510000Y-79290000D01*
X155350000Y-82310000D02*
X155350000Y-79290000D01*
%TO.C,D2*%
X150450000Y-85090000D02*
X150450000Y-88110000D01*
X150450000Y-88110000D02*
X155290000Y-88110000D01*
X155290000Y-85090000D02*
X150450000Y-85090000D01*
X155290000Y-88110000D02*
X155290000Y-85090000D01*
%TO.C,R2*%
X150462500Y-82470000D02*
X155362500Y-82470000D01*
X150462500Y-84730000D02*
X150462500Y-82470000D01*
X155362500Y-82470000D02*
X155362500Y-84730000D01*
X155362500Y-84730000D02*
X150462500Y-84730000D01*
%TO.C,J3*%
X145230000Y-80490000D02*
X145230000Y-86580000D01*
X145230000Y-86580000D02*
X148770000Y-86580000D01*
X148770000Y-80490000D02*
X145230000Y-80490000D01*
X148770000Y-86580000D02*
X148770000Y-80490000D01*
%TO.C,R1*%
X150462500Y-76470000D02*
X155362500Y-76470000D01*
X150462500Y-78730000D02*
X150462500Y-76470000D01*
X155362500Y-76470000D02*
X155362500Y-78730000D01*
X155362500Y-78730000D02*
X150462500Y-78730000D01*
%TO.C,J1*%
X150630000Y-59280000D02*
X150630000Y-75520000D01*
X150630000Y-75520000D02*
X154170000Y-75520000D01*
X154170000Y-59280000D02*
X150630000Y-59280000D01*
X154170000Y-75520000D02*
X154170000Y-59280000D01*
%TO.C,J4*%
X144950000Y-77000000D02*
X144950000Y-80200000D01*
X144950000Y-77000000D02*
X149450000Y-77000000D01*
X149450000Y-80200000D02*
X144950000Y-80200000D01*
X149450000Y-80200000D02*
X149450000Y-77000000D01*
%TO.C,U1*%
X148735000Y-50687500D02*
X149155000Y-50687500D01*
X148735000Y-56487500D02*
X148735000Y-50687500D01*
X149155000Y-48937500D02*
X154115000Y-48937500D01*
X149155000Y-50687500D02*
X149155000Y-48937500D01*
X149155000Y-56487500D02*
X148735000Y-56487500D01*
X149155000Y-58237500D02*
X149155000Y-56487500D01*
X154115000Y-48937500D02*
X154115000Y-50687500D01*
X154115000Y-50687500D02*
X154535000Y-50687500D01*
X154115000Y-56487500D02*
X154115000Y-58237500D01*
X154115000Y-58237500D02*
X149155000Y-58237500D01*
X154535000Y-50687500D02*
X154535000Y-56487500D01*
X154535000Y-56487500D02*
X154115000Y-56487500D01*
%TD*%
M02*
