%TF.GenerationSoftware,KiCad,Pcbnew,9.0.2+dfsg-1*%
%TF.CreationDate,2025-10-31T17:19:15+01:00*%
%TF.ProjectId,attiny,61747469-6e79-42e6-9b69-6361645f7063,rev?*%
%TF.SameCoordinates,Original*%
%TF.FileFunction,Soldermask,Top*%
%TF.FilePolarity,Negative*%
%FSLAX46Y46*%
G04 Gerber Fmt 4.6, Leading zero omitted, Abs format (unit mm)*
G04 Created by KiCad (PCBNEW 9.0.2+dfsg-1) date 2025-10-31 17:19:15*
%MOMM*%
%LPD*%
G01*
G04 APERTURE LIST*
G04 Aperture macros list*
%AMRoundRect*
0 Rectangle with rounded corners*
0 $1 Rounding radius*
0 $2 $3 $4 $5 $6 $7 $8 $9 X,Y pos of 4 corners*
0 Add a 4 corners polygon primitive as box body*
4,1,4,$2,$3,$4,$5,$6,$7,$8,$9,$2,$3,0*
0 Add four circle primitives for the rounded corners*
1,1,$1+$1,$2,$3*
1,1,$1+$1,$4,$5*
1,1,$1+$1,$6,$7*
1,1,$1+$1,$8,$9*
0 Add four rect primitives between the rounded corners*
20,1,$1+$1,$2,$3,$4,$5,0*
20,1,$1+$1,$4,$5,$6,$7,0*
20,1,$1+$1,$6,$7,$8,$9,0*
20,1,$1+$1,$8,$9,$2,$3,0*%
G04 Aperture macros list end*
%ADD10R,1.800000X1.800000*%
%ADD11C,1.800000*%
%ADD12RoundRect,0.250001X-0.462499X-0.624999X0.462499X-0.624999X0.462499X0.624999X-0.462499X0.624999X0*%
%ADD13R,1.700000X1.700000*%
%ADD14C,1.700000*%
%ADD15C,2.200000*%
%ADD16RoundRect,0.162500X-0.162500X0.650000X-0.162500X-0.650000X0.162500X-0.650000X0.162500X0.650000X0*%
G04 APERTURE END LIST*
D10*
%TO.C,D1*%
X151660000Y-80800000D03*
D11*
X154200000Y-80800000D03*
%TD*%
D10*
%TO.C,D2*%
X151600000Y-86600000D03*
D11*
X154140000Y-86600000D03*
%TD*%
D12*
%TO.C,R2*%
X151425000Y-83600000D03*
X154400000Y-83600000D03*
%TD*%
D13*
%TO.C,J3*%
X147000000Y-82260000D03*
D14*
X147000000Y-84800000D03*
%TD*%
D12*
%TO.C,R1*%
X151425000Y-77600000D03*
X154400000Y-77600000D03*
%TD*%
D13*
%TO.C,J1*%
X152400000Y-61050000D03*
D14*
X152400000Y-63590000D03*
X152400000Y-66130000D03*
X152400000Y-68670000D03*
X152400000Y-71210000D03*
X152400000Y-73750000D03*
%TD*%
D15*
%TO.C,J4*%
X147200000Y-78600000D03*
%TD*%
D16*
%TO.C,U1*%
X153540000Y-50000000D03*
X152270000Y-50000000D03*
X151000000Y-50000000D03*
X149730000Y-50000000D03*
X149730000Y-57175000D03*
X151000000Y-57175000D03*
X152270000Y-57175000D03*
X153540000Y-57175000D03*
%TD*%
D13*
%TO.C,J2*%
X157500000Y-86280000D03*
D14*
X157500000Y-83740000D03*
X157500000Y-81200000D03*
X157500000Y-78660000D03*
X157500000Y-76120000D03*
X157500000Y-73580000D03*
X157500000Y-71040000D03*
X157500000Y-68500000D03*
X157500000Y-65960000D03*
X157500000Y-63420000D03*
X157500000Y-60880000D03*
X157500000Y-58340000D03*
X157500000Y-55800000D03*
X157500000Y-53260000D03*
X157500000Y-50720000D03*
%TD*%
M02*
